<?xml version="1.0" encoding="UTF-8" standalone="no"?>
<!DOCTYPE svg PUBLIC "-//W3C//DTD SVG 1.1//EN"
 "http://www.w3.org/Graphics/SVG/1.1/DTD/svg11.dtd">
<!-- Generated by graphviz version 2.40.1 (20161225.0304)
 -->
<!-- Title: dependencies Pages: 1 -->
<svg width="7707pt" height="284pt"
 viewBox="0.00 0.00 7707.00 284.00" xmlns="http://www.w3.org/2000/svg" xmlns:xlink="http://www.w3.org/1999/xlink">
<g id="graph0" class="graph" transform="scale(1 1) rotate(0) translate(4 280)">
<title>dependencies</title>
<polygon fill="#ffffff" stroke="transparent" points="-4,4 -4,-280 7703,-280 7703,4 -4,4"/>
<text text-anchor="start" x="3828.5091" y="-42.4" font-family="sans-serif" font-weight="bold" font-size="14.00" fill="#000000">Legend</text>
<polygon fill="#ffffb3" stroke="transparent" points="3615.5,-10 3615.5,-30 3635.5,-30 3635.5,-10 3615.5,-10"/>
<text text-anchor="start" x="3639.129" y="-15.4" font-family="sans-serif" font-size="14.00" fill="#000000"> &#160;Declarations</text>
<polygon fill="#8dd3c7" stroke="transparent" points="3728.5,-10 3728.5,-30 3748.5,-30 3748.5,-10 3728.5,-10"/>
<text text-anchor="start" x="3752.2251" y="-15.4" font-family="sans-serif" font-size="14.00" fill="#000000"> &#160;Module</text>
<polygon fill="#80b1d3" stroke="transparent" points="3814.5,-10 3814.5,-30 3834.5,-30 3834.5,-10 3814.5,-10"/>
<text text-anchor="start" x="3838.2812" y="-15.4" font-family="sans-serif" font-size="14.00" fill="#000000"> &#160;Bootstrap</text>
<polygon fill="#fdb462" stroke="transparent" points="3911.5,-10 3911.5,-30 3931.5,-30 3931.5,-10 3911.5,-10"/>
<text text-anchor="start" x="3935.1732" y="-15.4" font-family="sans-serif" font-size="14.00" fill="#000000"> &#160;Providers</text>
<polygon fill="#fb8072" stroke="transparent" points="4007.5,-10 4007.5,-30 4027.5,-30 4027.5,-10 4007.5,-10"/>
<text text-anchor="start" x="4031.2258" y="-15.4" font-family="sans-serif" font-size="14.00" fill="#000000"> &#160;Exports</text>
<g id="clust1" class="cluster">
<title>cluster_AppModule</title>
<polygon fill="none" stroke="#000000" stroke-dasharray="1,5" points="8,-70 8,-268 7691,-268 7691,-70 8,-70"/>
</g>
<g id="clust2" class="cluster">
<title>cluster_AppModule_declarations</title>
<polygon fill="none" stroke="#000000" points="3431,-78 3431,-130 7683,-130 7683,-78 3431,-78"/>
</g>
<g id="clust31" class="cluster">
<title>cluster_AppModule_imports</title>
<polygon fill="none" stroke="#000000" points="3279,-78 3279,-130 3423,-130 3423,-78 3279,-78"/>
</g>
<g id="clust33" class="cluster">
<title>cluster_AppModule_bootstrap</title>
<polygon fill="none" stroke="#000000" points="3882,-208 3882,-260 4006,-260 4006,-208 3882,-208"/>
</g>
<g id="clust34" class="cluster">
<title>cluster_AppModule_providers</title>
<polygon fill="none" stroke="#000000" points="16,-78 16,-130 3271,-130 3271,-78 16,-78"/>
</g>
<!-- AboutusComponent -->
<g id="node1" class="node">
<title>AboutusComponent</title>
<polygon fill="#ffffb3" stroke="#000000" points="7675.2744,-122 7546.7256,-122 7546.7256,-86 7675.2744,-86 7675.2744,-122"/>
<text text-anchor="middle" x="7611" y="-99.8" font-family="Times,serif" font-size="14.00" fill="#000000">AboutusComponent</text>
</g>
<!-- AppModule -->
<g id="node29" class="node">
<title>AppModule</title>
<polygon fill="#8dd3c7" stroke="#000000" points="3985.6571,-187 3982.6571,-191 3961.6571,-191 3958.6571,-187 3902.3429,-187 3902.3429,-151 3985.6571,-151 3985.6571,-187"/>
<text text-anchor="middle" x="3944" y="-164.8" font-family="Times,serif" font-size="14.00" fill="#000000">AppModule</text>
</g>
<!-- AboutusComponent&#45;&gt;AppModule -->
<g id="edge1" class="edge">
<title>AboutusComponent&#45;&gt;AppModule</title>
<path fill="none" stroke="#000000" d="M7611,-122.1985C7611,-146.3563 7611,-186 7611,-186 7611,-186 3995.8139,-186 3995.8139,-186"/>
<polygon fill="#000000" stroke="#000000" points="3995.8139,-182.5001 3985.8139,-186 3995.8139,-189.5001 3995.8139,-182.5001"/>
</g>
<!-- AddressComponent -->
<g id="node2" class="node">
<title>AddressComponent</title>
<polygon fill="#ffffb3" stroke="#000000" points="7528.7036,-122 7401.2964,-122 7401.2964,-86 7528.7036,-86 7528.7036,-122"/>
<text text-anchor="middle" x="7465" y="-99.8" font-family="Times,serif" font-size="14.00" fill="#000000">AddressComponent</text>
</g>
<!-- AddressComponent&#45;&gt;AppModule -->
<g id="edge2" class="edge">
<title>AddressComponent&#45;&gt;AppModule</title>
<path fill="none" stroke="#000000" d="M7465,-122.3802C7465,-146.2785 7465,-185 7465,-185 7465,-185 3995.6849,-185 3995.6849,-185"/>
<polygon fill="#000000" stroke="#000000" points="3995.6849,-181.5001 3985.6849,-185 3995.6849,-188.5001 3995.6849,-181.5001"/>
</g>
<!-- AlertdialogComponent -->
<g id="node3" class="node">
<title>AlertdialogComponent</title>
<polygon fill="#ffffb3" stroke="#000000" points="7383.5912,-122 7238.4088,-122 7238.4088,-86 7383.5912,-86 7383.5912,-122"/>
<text text-anchor="middle" x="7311" y="-99.8" font-family="Times,serif" font-size="14.00" fill="#000000">AlertdialogComponent</text>
</g>
<!-- AlertdialogComponent&#45;&gt;AppModule -->
<g id="edge3" class="edge">
<title>AlertdialogComponent&#45;&gt;AppModule</title>
<path fill="none" stroke="#000000" d="M7311,-122.3228C7311,-145.6602 7311,-183 7311,-183 7311,-183 3995.6587,-183 3995.6587,-183"/>
<polygon fill="#000000" stroke="#000000" points="3995.6587,-179.5001 3985.6587,-183 3995.6587,-186.5001 3995.6587,-179.5001"/>
</g>
<!-- AppComponent -->
<g id="node4" class="node">
<title>AppComponent</title>
<polygon fill="#ffffb3" stroke="#000000" points="7220.9399,-122 7115.0601,-122 7115.0601,-86 7220.9399,-86 7220.9399,-122"/>
<text text-anchor="middle" x="7168" y="-99.8" font-family="Times,serif" font-size="14.00" fill="#000000">AppComponent</text>
</g>
<!-- AppComponent&#45;&gt;AppModule -->
<g id="edge4" class="edge">
<title>AppComponent&#45;&gt;AppModule</title>
<path fill="none" stroke="#000000" d="M7168,-122.0908C7168,-145.1328 7168,-182 7168,-182 7168,-182 3995.9424,-182 3995.9424,-182"/>
<polygon fill="#000000" stroke="#000000" points="3995.9425,-178.5001 3985.9424,-182 3995.9424,-185.5001 3995.9425,-178.5001"/>
</g>
<!-- BenefReviewComponent -->
<g id="node5" class="node">
<title>BenefReviewComponent</title>
<polygon fill="#ffffb3" stroke="#000000" points="7097.5225,-122 6940.4775,-122 6940.4775,-86 7097.5225,-86 7097.5225,-122"/>
<text text-anchor="middle" x="7019" y="-99.8" font-family="Times,serif" font-size="14.00" fill="#000000">BenefReviewComponent</text>
</g>
<!-- BenefReviewComponent&#45;&gt;AppModule -->
<g id="edge5" class="edge">
<title>BenefReviewComponent&#45;&gt;AppModule</title>
<path fill="none" stroke="#000000" d="M7019,-122.0109C7019,-144.4852 7019,-180 7019,-180 7019,-180 3995.7195,-180 3995.7195,-180"/>
<polygon fill="#000000" stroke="#000000" points="3995.7196,-176.5001 3985.7195,-180 3995.7195,-183.5001 3995.7196,-176.5001"/>
</g>
<!-- BeneficiariesComponent -->
<g id="node6" class="node">
<title>BeneficiariesComponent</title>
<polygon fill="#ffffb3" stroke="#000000" points="6922.6797,-122 6767.3203,-122 6767.3203,-86 6922.6797,-86 6922.6797,-122"/>
<text text-anchor="middle" x="6845" y="-99.8" font-family="Times,serif" font-size="14.00" fill="#000000">BeneficiariesComponent</text>
</g>
<!-- BeneficiariesComponent&#45;&gt;AppModule -->
<g id="edge6" class="edge">
<title>BeneficiariesComponent&#45;&gt;AppModule</title>
<path fill="none" stroke="#000000" d="M6845,-122.1554C6845,-144.3519 6845,-179 6845,-179 6845,-179 3995.8468,-179 3995.8468,-179"/>
<polygon fill="#000000" stroke="#000000" points="3995.8468,-175.5001 3985.8468,-179 3995.8468,-182.5001 3995.8468,-175.5001"/>
</g>
<!-- CardReviewComponent -->
<g id="node7" class="node">
<title>CardReviewComponent</title>
<polygon fill="#ffffb3" stroke="#000000" points="6749.8075,-122 6598.1925,-122 6598.1925,-86 6749.8075,-86 6749.8075,-122"/>
<text text-anchor="middle" x="6674" y="-99.8" font-family="Times,serif" font-size="14.00" fill="#000000">CardReviewComponent</text>
</g>
<!-- CardReviewComponent&#45;&gt;AppModule -->
<g id="edge7" class="edge">
<title>CardReviewComponent&#45;&gt;AppModule</title>
<path fill="none" stroke="#000000" d="M6674,-122.0449C6674,-143.6623 6674,-177 6674,-177 6674,-177 3995.7893,-177 3995.7893,-177"/>
<polygon fill="#000000" stroke="#000000" points="3995.7894,-173.5001 3985.7893,-177 3995.7893,-180.5001 3995.7894,-173.5001"/>
</g>
<!-- CareersComponent -->
<g id="node8" class="node">
<title>CareersComponent</title>
<polygon fill="#ffffb3" stroke="#000000" points="6580.0786,-122 6455.9214,-122 6455.9214,-86 6580.0786,-86 6580.0786,-122"/>
<text text-anchor="middle" x="6518" y="-99.8" font-family="Times,serif" font-size="14.00" fill="#000000">CareersComponent</text>
</g>
<!-- CareersComponent&#45;&gt;AppModule -->
<g id="edge8" class="edge">
<title>CareersComponent&#45;&gt;AppModule</title>
<path fill="none" stroke="#000000" d="M6518,-122.1686C6518,-143.498 6518,-176 6518,-176 6518,-176 3995.7365,-176 3995.7365,-176"/>
<polygon fill="#000000" stroke="#000000" points="3995.7366,-172.5001 3985.7365,-176 3995.7365,-179.5001 3995.7366,-172.5001"/>
</g>
<!-- ContactUsComponent -->
<g id="node9" class="node">
<title>ContactUsComponent</title>
<polygon fill="#ffffb3" stroke="#000000" points="6438.4313,-122 6297.5687,-122 6297.5687,-86 6438.4313,-86 6438.4313,-122"/>
<text text-anchor="middle" x="6368" y="-99.8" font-family="Times,serif" font-size="14.00" fill="#000000">ContactUsComponent</text>
</g>
<!-- ContactUsComponent&#45;&gt;AppModule -->
<g id="edge9" class="edge">
<title>ContactUsComponent&#45;&gt;AppModule</title>
<path fill="none" stroke="#000000" d="M6368,-122.2843C6368,-143.3211 6368,-175 6368,-175 6368,-175 3995.8177,-175 3995.8177,-175"/>
<polygon fill="#000000" stroke="#000000" points="3995.8177,-171.5001 3985.8177,-175 3995.8177,-178.5001 3995.8177,-171.5001"/>
</g>
<!-- FaqsComponent -->
<g id="node10" class="node">
<title>FaqsComponent</title>
<polygon fill="#ffffb3" stroke="#000000" points="6279.7744,-122 6172.2256,-122 6172.2256,-86 6279.7744,-86 6279.7744,-122"/>
<text text-anchor="middle" x="6226" y="-99.8" font-family="Times,serif" font-size="14.00" fill="#000000">FaqsComponent</text>
</g>
<!-- FaqsComponent&#45;&gt;AppModule -->
<g id="edge10" class="edge">
<title>FaqsComponent&#45;&gt;AppModule</title>
<path fill="none" stroke="#000000" d="M6226,-122.1289C6226,-142.5724 6226,-173 6226,-173 6226,-173 3996.0503,-173 3996.0503,-173"/>
<polygon fill="#000000" stroke="#000000" points="3996.0503,-169.5001 3986.0503,-173 3996.0502,-176.5001 3996.0503,-169.5001"/>
</g>
<!-- FollowusComponent -->
<g id="node11" class="node">
<title>FollowusComponent</title>
<polygon fill="#ffffb3" stroke="#000000" points="6153.9482,-122 6020.0518,-122 6020.0518,-86 6153.9482,-86 6153.9482,-122"/>
<text text-anchor="middle" x="6087" y="-99.8" font-family="Times,serif" font-size="14.00" fill="#000000">FollowusComponent</text>
</g>
<!-- FollowusComponent&#45;&gt;AppModule -->
<g id="edge11" class="edge">
<title>FollowusComponent&#45;&gt;AppModule</title>
<path fill="none" stroke="#000000" d="M6087,-122.2228C6087,-142.3652 6087,-172 6087,-172 6087,-172 3995.8463,-172 3995.8463,-172"/>
<polygon fill="#000000" stroke="#000000" points="3995.8464,-168.5001 3985.8463,-172 3995.8463,-175.5001 3995.8464,-168.5001"/>
</g>
<!-- FooterComponent -->
<g id="node12" class="node">
<title>FooterComponent</title>
<polygon fill="#ffffb3" stroke="#000000" points="6001.8809,-122 5884.1191,-122 5884.1191,-86 6001.8809,-86 6001.8809,-122"/>
<text text-anchor="middle" x="5943" y="-99.8" font-family="Times,serif" font-size="14.00" fill="#000000">FooterComponent</text>
</g>
<!-- FooterComponent&#45;&gt;AppModule -->
<g id="edge12" class="edge">
<title>FooterComponent&#45;&gt;AppModule</title>
<path fill="none" stroke="#000000" d="M5943,-122.0348C5943,-141.5762 5943,-170 5943,-170 5943,-170 3995.752,-170 3995.752,-170"/>
<polygon fill="#000000" stroke="#000000" points="3995.752,-166.5001 3985.752,-170 3995.7519,-173.5001 3995.752,-166.5001"/>
</g>
<!-- GroceriesComponent -->
<g id="node13" class="node">
<title>GroceriesComponent</title>
<polygon fill="#ffffb3" stroke="#000000" points="5865.7395,-122 5730.2605,-122 5730.2605,-86 5865.7395,-86 5865.7395,-122"/>
<text text-anchor="middle" x="5798" y="-99.8" font-family="Times,serif" font-size="14.00" fill="#000000">GroceriesComponent</text>
</g>
<!-- GroceriesComponent&#45;&gt;AppModule -->
<g id="edge13" class="edge">
<title>GroceriesComponent&#45;&gt;AppModule</title>
<path fill="none" stroke="#000000" d="M5798,-122.1061C5798,-141.3391 5798,-169 5798,-169 5798,-169 3995.7638,-169 3995.7638,-169"/>
<polygon fill="#000000" stroke="#000000" points="3995.7638,-165.5001 3985.7638,-169 3995.7637,-172.5001 3995.7638,-165.5001"/>
</g>
<!-- HeaderComponent -->
<g id="node14" class="node">
<title>HeaderComponent</title>
<polygon fill="#ffffb3" stroke="#000000" points="5711.7437,-122 5590.2563,-122 5590.2563,-86 5711.7437,-86 5711.7437,-122"/>
<text text-anchor="middle" x="5651" y="-99.8" font-family="Times,serif" font-size="14.00" fill="#000000">HeaderComponent</text>
</g>
<!-- HeaderComponent&#45;&gt;AppModule -->
<g id="edge14" class="edge">
<title>HeaderComponent&#45;&gt;AppModule</title>
<path fill="none" stroke="#000000" d="M5651,-122.2222C5651,-140.8285 5651,-167 5651,-167 5651,-167 3995.7718,-167 3995.7718,-167"/>
<polygon fill="#000000" stroke="#000000" points="3995.7719,-163.5001 3985.7718,-167 3995.7718,-170.5001 3995.7719,-163.5001"/>
</g>
<!-- HowitwrksComponent -->
<g id="node15" class="node">
<title>HowitwrksComponent</title>
<polygon fill="#ffffb3" stroke="#000000" points="5571.5393,-122 5428.4607,-122 5428.4607,-86 5571.5393,-86 5571.5393,-122"/>
<text text-anchor="middle" x="5500" y="-99.8" font-family="Times,serif" font-size="14.00" fill="#000000">HowitwrksComponent</text>
</g>
<!-- HowitwrksComponent&#45;&gt;AppModule -->
<g id="edge15" class="edge">
<title>HowitwrksComponent&#45;&gt;AppModule</title>
<path fill="none" stroke="#000000" d="M5500,-122.2667C5500,-140.5552 5500,-166 5500,-166 5500,-166 3996.0218,-166 3996.0218,-166"/>
<polygon fill="#000000" stroke="#000000" points="3996.0219,-162.5001 3986.0218,-166 3996.0218,-169.5001 3996.0219,-162.5001"/>
</g>
<!-- JewelleryComponent -->
<g id="node16" class="node">
<title>JewelleryComponent</title>
<polygon fill="#ffffb3" stroke="#000000" points="5410.4692,-122 5275.5308,-122 5275.5308,-86 5410.4692,-86 5410.4692,-122"/>
<text text-anchor="middle" x="5343" y="-99.8" font-family="Times,serif" font-size="14.00" fill="#000000">JewelleryComponent</text>
</g>
<!-- JewelleryComponent&#45;&gt;AppModule -->
<g id="edge16" class="edge">
<title>JewelleryComponent&#45;&gt;AppModule</title>
<path fill="none" stroke="#000000" d="M5343,-122.002C5343,-139.6754 5343,-164 5343,-164 5343,-164 3995.8693,-164 3995.8693,-164"/>
<polygon fill="#000000" stroke="#000000" points="3995.8693,-160.5001 3985.8693,-164 3995.8693,-167.5001 3995.8693,-160.5001"/>
</g>
<!-- LegalComponent -->
<g id="node17" class="node">
<title>LegalComponent</title>
<polygon fill="#ffffb3" stroke="#000000" points="5257.705,-122 5144.295,-122 5144.295,-86 5257.705,-86 5257.705,-122"/>
<text text-anchor="middle" x="5201" y="-99.8" font-family="Times,serif" font-size="14.00" fill="#000000">LegalComponent</text>
</g>
<!-- LegalComponent&#45;&gt;AppModule -->
<g id="edge17" class="edge">
<title>LegalComponent&#45;&gt;AppModule</title>
<path fill="none" stroke="#000000" d="M5201,-122.0225C5201,-139.3734 5201,-163 5201,-163 5201,-163 3995.8226,-163 3995.8226,-163"/>
<polygon fill="#000000" stroke="#000000" points="3995.8227,-159.5001 3985.8226,-163 3995.8226,-166.5001 3995.8227,-159.5001"/>
</g>
<!-- LoadingspinComponent -->
<g id="node18" class="node">
<title>LoadingspinComponent</title>
<polygon fill="#ffffb3" stroke="#000000" points="5126.8258,-122 4975.1742,-122 4975.1742,-86 5126.8258,-86 5126.8258,-122"/>
<text text-anchor="middle" x="5051" y="-99.8" font-family="Times,serif" font-size="14.00" fill="#000000">LoadingspinComponent</text>
</g>
<!-- LoadingspinComponent&#45;&gt;AppModule -->
<g id="edge18" class="edge">
<title>LoadingspinComponent&#45;&gt;AppModule</title>
<path fill="none" stroke="#000000" d="M5051,-122.0336C5051,-139.0597 5051,-162 5051,-162 5051,-162 3995.709,-162 3995.709,-162"/>
<polygon fill="#000000" stroke="#000000" points="3995.7091,-158.5001 3985.709,-162 3995.709,-165.5001 3995.7091,-158.5001"/>
</g>
<!-- MediakitComponent -->
<g id="node19" class="node">
<title>MediakitComponent</title>
<polygon fill="#ffffb3" stroke="#000000" points="4956.8781,-122 4825.1219,-122 4825.1219,-86 4956.8781,-86 4956.8781,-122"/>
<text text-anchor="middle" x="4891" y="-99.8" font-family="Times,serif" font-size="14.00" fill="#000000">MediakitComponent</text>
</g>
<!-- MediakitComponent&#45;&gt;AppModule -->
<g id="edge19" class="edge">
<title>MediakitComponent&#45;&gt;AppModule</title>
<path fill="none" stroke="#000000" d="M4891,-122.027C4891,-138.3976 4891,-160 4891,-160 4891,-160 3995.9133,-160 3995.9133,-160"/>
<polygon fill="#000000" stroke="#000000" points="3995.9134,-156.5001 3985.9133,-160 3995.9133,-163.5001 3995.9134,-156.5001"/>
</g>
<!-- MessagesComponent -->
<g id="node20" class="node">
<title>MessagesComponent</title>
<polygon fill="#ffffb3" stroke="#000000" points="4806.7548,-122 4671.2452,-122 4671.2452,-86 4806.7548,-86 4806.7548,-122"/>
<text text-anchor="middle" x="4739" y="-99.8" font-family="Times,serif" font-size="14.00" fill="#000000">MessagesComponent</text>
</g>
<!-- MessagesComponent&#45;&gt;AppModule -->
<g id="edge20" class="edge">
<title>MessagesComponent&#45;&gt;AppModule</title>
<path fill="none" stroke="#000000" d="M4739,-122.0091C4739,-138.0494 4739,-159 4739,-159 4739,-159 3995.9019,-159 3995.9019,-159"/>
<polygon fill="#000000" stroke="#000000" points="3995.902,-155.5001 3985.9019,-159 3995.9019,-162.5001 3995.902,-155.5001"/>
</g>
<!-- MyaccountComponent -->
<g id="node21" class="node">
<title>MyaccountComponent</title>
<polygon fill="#ffffb3" stroke="#000000" points="4653.3117,-122 4508.6883,-122 4508.6883,-86 4653.3117,-86 4653.3117,-122"/>
<text text-anchor="middle" x="4581" y="-99.8" font-family="Times,serif" font-size="14.00" fill="#000000">MyaccountComponent</text>
</g>
<!-- MyaccountComponent&#45;&gt;AppModule -->
<g id="edge21" class="edge">
<title>MyaccountComponent&#45;&gt;AppModule</title>
<path fill="none" stroke="#000000" d="M4581,-122.2396C4581,-137.5706 4581,-157 4581,-157 4581,-157 3995.7953,-157 3995.7953,-157"/>
<polygon fill="#000000" stroke="#000000" points="3995.7954,-153.5001 3985.7953,-157 3995.7953,-160.5001 3995.7954,-153.5001"/>
</g>
<!-- Nav2Component -->
<g id="node22" class="node">
<title>Nav2Component</title>
<polygon fill="#ffffb3" stroke="#000000" points="4490.6541,-122 4379.3459,-122 4379.3459,-86 4490.6541,-86 4490.6541,-122"/>
<text text-anchor="middle" x="4435" y="-99.8" font-family="Times,serif" font-size="14.00" fill="#000000">Nav2Component</text>
</g>
<!-- Nav2Component&#45;&gt;AppModule -->
<g id="edge22" class="edge">
<title>Nav2Component&#45;&gt;AppModule</title>
<path fill="none" stroke="#000000" d="M4435,-122.1871C4435,-137.1824 4435,-156 4435,-156 4435,-156 3995.8624,-156 3995.8624,-156"/>
<polygon fill="#000000" stroke="#000000" points="3995.8624,-152.5001 3985.8624,-156 3995.8623,-159.5001 3995.8624,-152.5001"/>
</g>
<!-- OrderhistoryComponent -->
<g id="node23" class="node">
<title>OrderhistoryComponent</title>
<polygon fill="#ffffb3" stroke="#000000" points="4361.3613,-122 4208.6387,-122 4208.6387,-86 4361.3613,-86 4361.3613,-122"/>
<text text-anchor="middle" x="4285" y="-99.8" font-family="Times,serif" font-size="14.00" fill="#000000">OrderhistoryComponent</text>
</g>
<!-- OrderhistoryComponent&#45;&gt;AppModule -->
<g id="edge23" class="edge">
<title>OrderhistoryComponent&#45;&gt;AppModule</title>
<path fill="none" stroke="#000000" d="M4285,-122.0511C4285,-136.373 4285,-154 4285,-154 4285,-154 3995.8133,-154 3995.8133,-154"/>
<polygon fill="#000000" stroke="#000000" points="3995.8133,-150.5001 3985.8133,-154 3995.8133,-157.5001 3995.8133,-150.5001"/>
</g>
<!-- PaymentmethodComponent -->
<g id="node24" class="node">
<title>PaymentmethodComponent</title>
<polygon fill="#ffffb3" stroke="#000000" points="4190.3215,-122 4017.6785,-122 4017.6785,-86 4190.3215,-86 4190.3215,-122"/>
<text text-anchor="middle" x="4104" y="-99.8" font-family="Times,serif" font-size="14.00" fill="#000000">PaymentmethodComponent</text>
</g>
<!-- PaymentmethodComponent&#45;&gt;AppModule -->
<g id="edge24" class="edge">
<title>PaymentmethodComponent&#45;&gt;AppModule</title>
<path fill="none" stroke="#000000" d="M4104,-122.2458C4104,-136.1772 4104,-153 4104,-153 4104,-153 3996.0381,-153 3996.0381,-153"/>
<polygon fill="#000000" stroke="#000000" points="3996.0382,-149.5001 3986.0381,-153 3996.0381,-156.5001 3996.0382,-149.5001"/>
</g>
<!-- PressComponent -->
<g id="node25" class="node">
<title>PressComponent</title>
<polygon fill="#ffffb3" stroke="#000000" points="3999.3795,-122 3888.6205,-122 3888.6205,-86 3999.3795,-86 3999.3795,-122"/>
<text text-anchor="middle" x="3944" y="-99.8" font-family="Times,serif" font-size="14.00" fill="#000000">PressComponent</text>
</g>
<!-- PressComponent&#45;&gt;AppModule -->
<g id="edge25" class="edge">
<title>PressComponent&#45;&gt;AppModule</title>
<path fill="none" stroke="#000000" d="M3944,-122.1061C3944,-122.1061 3944,-140.991 3944,-140.991"/>
<polygon fill="#000000" stroke="#000000" points="3940.5001,-140.9909 3944,-150.991 3947.5001,-140.991 3940.5001,-140.9909"/>
</g>
<!-- PrivacyComponent -->
<g id="node26" class="node">
<title>PrivacyComponent</title>
<polygon fill="#ffffb3" stroke="#000000" points="3871.0954,-122 3746.9046,-122 3746.9046,-86 3871.0954,-86 3871.0954,-122"/>
<text text-anchor="middle" x="3809" y="-99.8" font-family="Times,serif" font-size="14.00" fill="#000000">PrivacyComponent</text>
</g>
<!-- PrivacyComponent&#45;&gt;AppModule -->
<g id="edge26" class="edge">
<title>PrivacyComponent&#45;&gt;AppModule</title>
<path fill="none" stroke="#000000" d="M3809,-122.2458C3809,-136.1772 3809,-153 3809,-153 3809,-153 3892.0252,-153 3892.0252,-153"/>
<polygon fill="#000000" stroke="#000000" points="3892.0252,-156.5001 3902.0252,-153 3892.0251,-149.5001 3892.0252,-156.5001"/>
</g>
<!-- ReferaFrndComponent -->
<g id="node27" class="node">
<title>ReferaFrndComponent</title>
<polygon fill="#ffffb3" stroke="#000000" points="3728.5772,-122 3583.4228,-122 3583.4228,-86 3728.5772,-86 3728.5772,-122"/>
<text text-anchor="middle" x="3656" y="-99.8" font-family="Times,serif" font-size="14.00" fill="#000000">ReferaFrndComponent</text>
</g>
<!-- ReferaFrndComponent&#45;&gt;AppModule -->
<g id="edge27" class="edge">
<title>ReferaFrndComponent&#45;&gt;AppModule</title>
<path fill="none" stroke="#000000" d="M3656,-122.0511C3656,-136.373 3656,-154 3656,-154 3656,-154 3892.1223,-154 3892.1223,-154"/>
<polygon fill="#000000" stroke="#000000" points="3892.1224,-157.5001 3902.1223,-154 3892.1223,-150.5001 3892.1224,-157.5001"/>
</g>
<!-- SettingsComponent -->
<g id="node28" class="node">
<title>SettingsComponent</title>
<polygon fill="#ffffb3" stroke="#000000" points="3565.4468,-122 3438.5532,-122 3438.5532,-86 3565.4468,-86 3565.4468,-122"/>
<text text-anchor="middle" x="3502" y="-99.8" font-family="Times,serif" font-size="14.00" fill="#000000">SettingsComponent</text>
</g>
<!-- SettingsComponent&#45;&gt;AppModule -->
<g id="edge28" class="edge">
<title>SettingsComponent&#45;&gt;AppModule</title>
<path fill="none" stroke="#000000" d="M3502,-122.1871C3502,-137.1824 3502,-156 3502,-156 3502,-156 3892.0192,-156 3892.0192,-156"/>
<polygon fill="#000000" stroke="#000000" points="3892.0193,-159.5001 3902.0192,-156 3892.0192,-152.5001 3892.0193,-159.5001"/>
</g>
<!-- AppComponent  -->
<g id="node31" class="node">
<title>AppComponent </title>
<polygon fill="#80b1d3" stroke="#000000" points="3998.439,-252 3889.561,-252 3889.561,-216 3998.439,-216 3998.439,-252"/>
<text text-anchor="middle" x="3944" y="-229.8" font-family="Times,serif" font-size="14.00" fill="#000000">AppComponent </text>
</g>
<!-- AppModule&#45;&gt;AppComponent  -->
<g id="edge30" class="edge">
<title>AppModule&#45;&gt;AppComponent </title>
<path fill="none" stroke="#000000" stroke-dasharray="1,5" d="M3944,-187.1061C3944,-187.1061 3944,-205.991 3944,-205.991"/>
<polygon fill="#000000" stroke="#000000" points="3940.5001,-205.9909 3944,-215.991 3947.5001,-205.991 3940.5001,-205.9909"/>
</g>
<!-- AppRoutingModule -->
<g id="node30" class="node">
<title>AppRoutingModule</title>
<polygon fill="#8dd3c7" stroke="#000000" points="3415.2744,-122 3412.2744,-126 3391.2744,-126 3388.2744,-122 3286.7256,-122 3286.7256,-86 3415.2744,-86 3415.2744,-122"/>
<text text-anchor="middle" x="3351" y="-99.8" font-family="Times,serif" font-size="14.00" fill="#000000">AppRoutingModule</text>
</g>
<!-- AppRoutingModule&#45;&gt;AppModule -->
<g id="edge29" class="edge">
<title>AppRoutingModule&#45;&gt;AppModule</title>
<path fill="none" stroke="#000000" d="M3351,-122.2396C3351,-137.5706 3351,-157 3351,-157 3351,-157 3892.3014,-157 3892.3014,-157"/>
<polygon fill="#000000" stroke="#000000" points="3892.3014,-160.5001 3902.3014,-157 3892.3014,-153.5001 3892.3014,-160.5001"/>
</g>
<!-- AuthService -->
<g id="node32" class="node">
<title>AuthService</title>
<ellipse fill="#fdb462" stroke="#000000" cx="3204" cy="-104" rx="59.1083" ry="18"/>
<text text-anchor="middle" x="3204" y="-99.8" font-family="Times,serif" font-size="14.00" fill="#000000">AuthService</text>
</g>
<!-- AuthService&#45;&gt;AppModule -->
<g id="edge31" class="edge">
<title>AuthService&#45;&gt;AppModule</title>
<path fill="none" stroke="#000000" d="M3204,-122.0091C3204,-138.0494 3204,-159 3204,-159 3204,-159 3892.0941,-159 3892.0941,-159"/>
<polygon fill="#000000" stroke="#000000" points="3892.0942,-162.5001 3902.0941,-159 3892.0941,-155.5001 3892.0942,-162.5001"/>
</g>
<!-- AutoPayService -->
<g id="node33" class="node">
<title>AutoPayService</title>
<ellipse fill="#fdb462" stroke="#000000" cx="3053" cy="-104" rx="73.5753" ry="18"/>
<text text-anchor="middle" x="3053" y="-99.8" font-family="Times,serif" font-size="14.00" fill="#000000">AutoPayService</text>
</g>
<!-- AutoPayService&#45;&gt;AppModule -->
<g id="edge32" class="edge">
<title>AutoPayService&#45;&gt;AppModule</title>
<path fill="none" stroke="#000000" d="M3053,-122.027C3053,-138.3976 3053,-160 3053,-160 3053,-160 3892.2203,-160 3892.2203,-160"/>
<polygon fill="#000000" stroke="#000000" points="3892.2203,-163.5001 3902.2203,-160 3892.2203,-156.5001 3892.2203,-163.5001"/>
</g>
<!-- BeneficiaryService -->
<g id="node34" class="node">
<title>BeneficiaryService</title>
<ellipse fill="#fdb462" stroke="#000000" cx="2876" cy="-104" rx="85.0657" ry="18"/>
<text text-anchor="middle" x="2876" y="-99.8" font-family="Times,serif" font-size="14.00" fill="#000000">BeneficiaryService</text>
</g>
<!-- BeneficiaryService&#45;&gt;AppModule -->
<g id="edge33" class="edge">
<title>BeneficiaryService&#45;&gt;AppModule</title>
<path fill="none" stroke="#000000" d="M2876,-122.0336C2876,-139.0597 2876,-162 2876,-162 2876,-162 3892.1331,-162 3892.1331,-162"/>
<polygon fill="#000000" stroke="#000000" points="3892.1332,-165.5001 3902.1331,-162 3892.1331,-158.5001 3892.1332,-165.5001"/>
</g>
<!-- CardService -->
<g id="node35" class="node">
<title>CardService</title>
<ellipse fill="#fdb462" stroke="#000000" cx="2714" cy="-104" rx="58.5251" ry="18"/>
<text text-anchor="middle" x="2714" y="-99.8" font-family="Times,serif" font-size="14.00" fill="#000000">CardService</text>
</g>
<!-- CardService&#45;&gt;AppModule -->
<g id="edge34" class="edge">
<title>CardService&#45;&gt;AppModule</title>
<path fill="none" stroke="#000000" d="M2714,-122.0225C2714,-139.3734 2714,-163 2714,-163 2714,-163 3892.0164,-163 3892.0164,-163"/>
<polygon fill="#000000" stroke="#000000" points="3892.0165,-166.5001 3902.0164,-163 3892.0164,-159.5001 3892.0165,-166.5001"/>
</g>
<!-- DateService -->
<g id="node36" class="node">
<title>DateService</title>
<ellipse fill="#fdb462" stroke="#000000" cx="2579" cy="-104" rx="58.4415" ry="18"/>
<text text-anchor="middle" x="2579" y="-99.8" font-family="Times,serif" font-size="14.00" fill="#000000">DateService</text>
</g>
<!-- DateService&#45;&gt;AppModule -->
<g id="edge35" class="edge">
<title>DateService&#45;&gt;AppModule</title>
<path fill="none" stroke="#000000" d="M2579,-122.002C2579,-139.6754 2579,-164 2579,-164 2579,-164 3892.028,-164 3892.028,-164"/>
<polygon fill="#000000" stroke="#000000" points="3892.028,-167.5001 3902.028,-164 3892.0279,-160.5001 3892.028,-167.5001"/>
</g>
<!-- ErrhandlerService -->
<g id="node37" class="node">
<title>ErrhandlerService</title>
<ellipse fill="#fdb462" stroke="#000000" cx="2422" cy="-104" rx="81.0571" ry="18"/>
<text text-anchor="middle" x="2422" y="-99.8" font-family="Times,serif" font-size="14.00" fill="#000000">ErrhandlerService</text>
</g>
<!-- ErrhandlerService&#45;&gt;AppModule -->
<g id="edge36" class="edge">
<title>ErrhandlerService&#45;&gt;AppModule</title>
<path fill="none" stroke="#000000" d="M2422,-122.2667C2422,-140.5552 2422,-166 2422,-166 2422,-166 3892.1035,-166 3892.1035,-166"/>
<polygon fill="#000000" stroke="#000000" points="3892.1036,-169.5001 3902.1035,-166 3892.1035,-162.5001 3892.1036,-169.5001"/>
</g>
<!-- IndexService -->
<g id="node38" class="node">
<title>IndexService</title>
<ellipse fill="#fdb462" stroke="#000000" cx="2261" cy="-104" rx="61.9577" ry="18"/>
<text text-anchor="middle" x="2261" y="-99.8" font-family="Times,serif" font-size="14.00" fill="#000000">IndexService</text>
</g>
<!-- IndexService&#45;&gt;AppModule -->
<g id="edge37" class="edge">
<title>IndexService&#45;&gt;AppModule</title>
<path fill="none" stroke="#000000" d="M2261,-122.2222C2261,-140.8285 2261,-167 2261,-167 2261,-167 3891.9776,-167 3891.9776,-167"/>
<polygon fill="#000000" stroke="#000000" points="3891.9777,-170.5001 3901.9776,-167 3891.9776,-163.5001 3891.9777,-170.5001"/>
</g>
<!-- LastIdService -->
<g id="node39" class="node">
<title>LastIdService</title>
<ellipse fill="#fdb462" stroke="#000000" cx="2116" cy="-104" rx="64.8215" ry="18"/>
<text text-anchor="middle" x="2116" y="-99.8" font-family="Times,serif" font-size="14.00" fill="#000000">LastIdService</text>
</g>
<!-- LastIdService&#45;&gt;AppModule -->
<g id="edge38" class="edge">
<title>LastIdService&#45;&gt;AppModule</title>
<path fill="none" stroke="#000000" d="M2116,-122.1061C2116,-141.3391 2116,-169 2116,-169 2116,-169 3891.9461,-169 3891.9461,-169"/>
<polygon fill="#000000" stroke="#000000" points="3891.9461,-172.5001 3901.9461,-169 3891.946,-165.5001 3891.9461,-172.5001"/>
</g>
<!-- MerchantPlansService -->
<g id="node40" class="node">
<title>MerchantPlansService</title>
<ellipse fill="#fdb462" stroke="#000000" cx="1935" cy="-104" rx="97.8286" ry="18"/>
<text text-anchor="middle" x="1935" y="-99.8" font-family="Times,serif" font-size="14.00" fill="#000000">MerchantPlansService</text>
</g>
<!-- MerchantPlansService&#45;&gt;AppModule -->
<g id="edge39" class="edge">
<title>MerchantPlansService&#45;&gt;AppModule</title>
<path fill="none" stroke="#000000" d="M1935,-122.0348C1935,-141.5762 1935,-170 1935,-170 1935,-170 3892.0392,-170 3892.0392,-170"/>
<polygon fill="#000000" stroke="#000000" points="3892.0392,-173.5001 3902.0392,-170 3892.0391,-166.5001 3892.0392,-173.5001"/>
</g>
<!-- MessageService -->
<g id="node41" class="node">
<title>MessageService</title>
<ellipse fill="#fdb462" stroke="#000000" cx="1745" cy="-104" rx="73.5522" ry="18"/>
<text text-anchor="middle" x="1745" y="-99.8" font-family="Times,serif" font-size="14.00" fill="#000000">MessageService</text>
</g>
<!-- MessageService&#45;&gt;AppModule -->
<g id="edge40" class="edge">
<title>MessageService&#45;&gt;AppModule</title>
<path fill="none" stroke="#000000" d="M1745,-122.2228C1745,-142.3652 1745,-172 1745,-172 1745,-172 3892.0356,-172 3892.0356,-172"/>
<polygon fill="#000000" stroke="#000000" points="3892.0357,-175.5001 3902.0356,-172 3892.0356,-168.5001 3892.0357,-175.5001"/>
</g>
<!-- OrderService -->
<g id="node42" class="node">
<title>OrderService</title>
<ellipse fill="#fdb462" stroke="#000000" cx="1591" cy="-104" rx="62.516" ry="18"/>
<text text-anchor="middle" x="1591" y="-99.8" font-family="Times,serif" font-size="14.00" fill="#000000">OrderService</text>
</g>
<!-- OrderService&#45;&gt;AppModule -->
<g id="edge41" class="edge">
<title>OrderService&#45;&gt;AppModule</title>
<path fill="none" stroke="#000000" d="M1591,-122.1289C1591,-142.5724 1591,-173 1591,-173 1591,-173 3892.1606,-173 3892.1606,-173"/>
<polygon fill="#000000" stroke="#000000" points="3892.1607,-176.5001 3902.1606,-173 3892.1606,-169.5001 3892.1607,-176.5001"/>
</g>
<!-- PaymentService -->
<g id="node43" class="node">
<title>PaymentService</title>
<ellipse fill="#fdb462" stroke="#000000" cx="1437" cy="-104" rx="73.5734" ry="18"/>
<text text-anchor="middle" x="1437" y="-99.8" font-family="Times,serif" font-size="14.00" fill="#000000">PaymentService</text>
</g>
<!-- PaymentService&#45;&gt;AppModule -->
<g id="edge42" class="edge">
<title>PaymentService&#45;&gt;AppModule</title>
<path fill="none" stroke="#000000" d="M1437,-122.2843C1437,-143.3211 1437,-175 1437,-175 1437,-175 3892.3192,-175 3892.3192,-175"/>
<polygon fill="#000000" stroke="#000000" points="3892.3192,-178.5001 3902.3192,-175 3892.3192,-171.5001 3892.3192,-178.5001"/>
</g>
<!-- PaymentsaveService -->
<g id="node44" class="node">
<title>PaymentsaveService</title>
<ellipse fill="#fdb462" stroke="#000000" cx="1254" cy="-104" rx="90.8878" ry="18"/>
<text text-anchor="middle" x="1254" y="-99.8" font-family="Times,serif" font-size="14.00" fill="#000000">PaymentsaveService</text>
</g>
<!-- PaymentsaveService&#45;&gt;AppModule -->
<g id="edge43" class="edge">
<title>PaymentsaveService&#45;&gt;AppModule</title>
<path fill="none" stroke="#000000" d="M1254,-122.1686C1254,-143.498 1254,-176 1254,-176 1254,-176 3892.2864,-176 3892.2864,-176"/>
<polygon fill="#000000" stroke="#000000" points="3892.2864,-179.5001 3902.2864,-176 3892.2863,-172.5001 3892.2864,-179.5001"/>
</g>
<!-- PlanService -->
<g id="node45" class="node">
<title>PlanService</title>
<ellipse fill="#fdb462" stroke="#000000" cx="1088" cy="-104" rx="57.3185" ry="18"/>
<text text-anchor="middle" x="1088" y="-99.8" font-family="Times,serif" font-size="14.00" fill="#000000">PlanService</text>
</g>
<!-- PlanService&#45;&gt;AppModule -->
<g id="edge44" class="edge">
<title>PlanService&#45;&gt;AppModule</title>
<path fill="none" stroke="#000000" d="M1088,-122.0449C1088,-143.6623 1088,-177 1088,-177 1088,-177 3892.2483,-177 3892.2483,-177"/>
<polygon fill="#000000" stroke="#000000" points="3892.2484,-180.5001 3902.2483,-177 3892.2483,-173.5001 3892.2484,-180.5001"/>
</g>
<!-- ProdscrollService -->
<g id="node46" class="node">
<title>ProdscrollService</title>
<ellipse fill="#fdb462" stroke="#000000" cx="933" cy="-104" rx="79.8701" ry="18"/>
<text text-anchor="middle" x="933" y="-99.8" font-family="Times,serif" font-size="14.00" fill="#000000">ProdscrollService</text>
</g>
<!-- ProdscrollService&#45;&gt;AppModule -->
<g id="edge45" class="edge">
<title>ProdscrollService&#45;&gt;AppModule</title>
<path fill="none" stroke="#000000" d="M933,-122.1554C933,-144.3519 933,-179 933,-179 933,-179 3892.2963,-179 3892.2963,-179"/>
<polygon fill="#000000" stroke="#000000" points="3892.2964,-182.5001 3902.2963,-179 3892.2963,-175.5001 3892.2964,-182.5001"/>
</g>
<!-- ProductService -->
<g id="node47" class="node">
<title>ProductService</title>
<ellipse fill="#fdb462" stroke="#000000" cx="765" cy="-104" rx="70.0616" ry="18"/>
<text text-anchor="middle" x="765" y="-99.8" font-family="Times,serif" font-size="14.00" fill="#000000">ProductService</text>
</g>
<!-- ProductService&#45;&gt;AppModule -->
<g id="edge46" class="edge">
<title>ProductService&#45;&gt;AppModule</title>
<path fill="none" stroke="#000000" d="M765,-122.0109C765,-144.4852 765,-180 765,-180 765,-180 3892.0558,-180 3892.0558,-180"/>
<polygon fill="#000000" stroke="#000000" points="3892.0558,-183.5001 3902.0558,-180 3892.0557,-176.5001 3892.0558,-183.5001"/>
</g>
<!-- RedemService -->
<g id="node48" class="node">
<title>RedemService</title>
<ellipse fill="#fdb462" stroke="#000000" cx="610" cy="-104" rx="67.1927" ry="18"/>
<text text-anchor="middle" x="610" y="-99.8" font-family="Times,serif" font-size="14.00" fill="#000000">RedemService</text>
</g>
<!-- RedemService&#45;&gt;AppModule -->
<g id="edge47" class="edge">
<title>RedemService&#45;&gt;AppModule</title>
<path fill="none" stroke="#000000" d="M610,-122.0908C610,-145.1328 610,-182 610,-182 610,-182 3892.1482,-182 3892.1482,-182"/>
<polygon fill="#000000" stroke="#000000" points="3892.1482,-185.5001 3902.1482,-182 3892.1481,-178.5001 3892.1482,-185.5001"/>
</g>
<!-- StripepaymentService -->
<g id="node49" class="node">
<title>StripepaymentService</title>
<ellipse fill="#fdb462" stroke="#000000" cx="428" cy="-104" rx="96.1247" ry="18"/>
<text text-anchor="middle" x="428" y="-99.8" font-family="Times,serif" font-size="14.00" fill="#000000">StripepaymentService</text>
</g>
<!-- StripepaymentService&#45;&gt;AppModule -->
<g id="edge48" class="edge">
<title>StripepaymentService&#45;&gt;AppModule</title>
<path fill="none" stroke="#000000" d="M428,-122.3228C428,-145.6602 428,-183 428,-183 428,-183 3892.0643,-183 3892.0643,-183"/>
<polygon fill="#000000" stroke="#000000" points="3892.0643,-186.5001 3902.0643,-183 3892.0642,-179.5001 3892.0643,-186.5001"/>
</g>
<!-- TokenInterceptor -->
<g id="node50" class="node">
<title>TokenInterceptor</title>
<ellipse fill="#fdb462" stroke="#000000" cx="236" cy="-104" rx="78.1308" ry="18"/>
<text text-anchor="middle" x="236" y="-99.8" font-family="Times,serif" font-size="14.00" fill="#000000">TokenInterceptor</text>
</g>
<!-- TokenInterceptor&#45;&gt;AppModule -->
<g id="edge49" class="edge">
<title>TokenInterceptor&#45;&gt;AppModule</title>
<path fill="none" stroke="#000000" d="M236,-122.3802C236,-146.2785 236,-185 236,-185 236,-185 3892.0386,-185 3892.0386,-185"/>
<polygon fill="#000000" stroke="#000000" points="3892.0386,-188.5001 3902.0386,-185 3892.0385,-181.5001 3892.0386,-188.5001"/>
</g>
<!-- UserService -->
<g id="node51" class="node">
<title>UserService</title>
<ellipse fill="#fdb462" stroke="#000000" cx="82" cy="-104" rx="58.4415" ry="18"/>
<text text-anchor="middle" x="82" y="-99.8" font-family="Times,serif" font-size="14.00" fill="#000000">UserService</text>
</g>
<!-- UserService&#45;&gt;AppModule -->
<g id="edge50" class="edge">
<title>UserService&#45;&gt;AppModule</title>
<path fill="none" stroke="#000000" d="M82,-122.1985C82,-146.3563 82,-186 82,-186 82,-186 3892.2702,-186 3892.2702,-186"/>
<polygon fill="#000000" stroke="#000000" points="3892.2702,-189.5001 3902.2702,-186 3892.2702,-182.5001 3892.2702,-189.5001"/>
</g>
</g>
</svg>
